<svg xmlns:dc="http://purl.org/dc/elements/1.1/" xmlns:cc="http://creativecommons.org/ns#" xmlns:rdf="http://www.w3.org/1999/02/22-rdf-syntax-ns#" xmlns:svg="http://www.w3.org/2000/svg" xmlns="http://www.w3.org/2000/svg" xmlns:xlink="http://www.w3.org/1999/xlink" id="svg322419" viewBox="0 0 1024 768" height="768px" width="1024px" version="1.1">
  <metadata id="metadata322425">
    <rdf:rdf>
      <cc:work rdf:about="">
        <dc:format>image/svg+xml</dc:format>
        <dc:type rdf:resource="http://purl.org/dc/dcmitype/StillImage"></dc:type>
      </cc:work>
    </rdf:rdf>
  </metadata>
  <defs id="defs322423"></defs>
  <linearGradient spreadMethod="pad" y2="30%" x2="-10%" y1="120%" x1="30%" id="3d_gradient2-logo-171e671e-0973-49e5-94c5-e9ecac16ae7c">
    <stop id="stop322400" stop-opacity="1" stop-color="#ffffff" offset="0%"></stop>
    <stop id="stop322402" stop-opacity="1" stop-color="#000000" offset="100%"></stop>
  </linearGradient>
  <linearGradient gradientTransform="rotate(-30)" spreadMethod="pad" y2="30%" x2="-10%" y1="120%" x1="30%" id="3d_gradient3-logo-171e671e-0973-49e5-94c5-e9ecac16ae7c">
    <stop id="stop322405" stop-opacity="1" stop-color="#ffffff" offset="0%"></stop>
    <stop id="stop322407" stop-opacity="1" stop-color="#cccccc" offset="50%"></stop>
    <stop id="stop322409" stop-opacity="1" stop-color="#000000" offset="100%"></stop>
  </linearGradient>
  <g id="logo-group">
    <image xlink:href="" id="container" x="272" y="144" width="480" height="480" transform="translate(0 0)" style="display: none;"></image>
    <g id="logo-center" transform="translate(0 0)">
      <image xlink:href="" id="icon_container" x="0" y="0" style="display: none;"></image>
      <g id="slogan" style="font-style:oblique;font-weight:normal;font-size:32px;line-height:1;font-family:'Fira Sans Condensed';font-variant-ligatures:none;text-align:center;text-anchor:middle" transform="translate(0 0)"></g>
      <g id="title" style="font-style:normal;font-weight:normal;font-size:72px;line-height:1;font-family:'Brandmark Sans 6 Spectrum';font-variant-ligatures:normal;text-align:center;text-anchor:middle" transform="translate(0 0)">
        <g id="path322428" aria-label="~R" transform="translate(0 325.57564) translate(202.40172270000005 16.280240000000006) scale(1.67) translate(-326.60562 50.328)"> <path class="c1" d="M108.25959,75.2088h11.02235c6.08746,0,11.02233,4.93487,11.02233,11.02233v0.00002 c0,6.08746-4.93487,11.02233-11.02233,11.02233h-11.02235V75.2088z" transform="translate(262.419676 -125.5368)" stroke-width="0" stroke-linejoin="miter" stroke-miterlimit="2" fill="#ffffff" stroke="#ffffff"></path> <rect x="80.72181" y="75.2088" class="c1" width="22.04462" height="49.5824" transform="translate(262.419676 -125.5368)" stroke-width="0" stroke-linejoin="miter" stroke-miterlimit="2" fill="#ffffff" stroke="#ffffff"></rect> <path class="c1" d="M108.25959,102.74664v22.04456h22.04469v-0.00002c0-12.17486-9.86967-22.04453-22.04454-22.04453H108.25959 z" transform="translate(262.419676 -125.5368)" stroke-width="0" stroke-linejoin="miter" stroke-miterlimit="2" fill="#ffffff" stroke="#ffffff"></path> <rect x="64.18594" y="91.73621" class="c3" width="71.62814" height="16.52759" transform="translate(262.419676 -125.5368)" stroke-width="0" stroke-linejoin="miter" stroke-miterlimit="2" fill="#ff001e" stroke="#ff001e"></rect> <rect x="80.72181" y="91.73615" class="c2" width="22.04462" height="16.52759" transform="translate(262.419676 -125.5368)" stroke-width="0" stroke-linejoin="miter" stroke-miterlimit="2" fill="#f5f5f5" stroke="#f5f5f5"></rect> <path class="c2" d="M108.25971,102.74664h-0.00012v5.51709h14.58038 C118.95362,104.83258,113.85157,102.74664,108.25971,102.74664z" transform="translate(262.419676 -125.5368)" stroke-width="0" stroke-linejoin="miter" stroke-miterlimit="2" fill="#f5f5f5" stroke="#f5f5f5"></path> <path class="c2" d="M108.25959,91.73615v5.51733h11.02234c4.07996,0,7.63367-2.22253,9.53944-5.51733H108.25959z" transform="translate(262.419676 -125.5368)" stroke-width="0" stroke-linejoin="miter" stroke-miterlimit="2" fill="#f5f5f5" stroke="#f5f5f5"></path> </g>
        <g id="path322430" aria-label="U" transform="translate(0 325.57564) translate(316.7706373000001 16.280240000000006) scale(1.67) translate(-395.09 50.328)"> <path class="c1" d="M102.75464,75.2088h22.03638v27.54604c0,12.17034-9.86601,22.03635-22.03635,22.03635h-0.00002V75.2088z" transform="translate(325.391033 -125.5368)" stroke-width="0" stroke-linejoin="miter" stroke-miterlimit="2" fill="#ffffff" stroke="#ffffff"></path> <path class="c1" d="M97.245,124.7912V75.2088H75.20862v27.54604c0,12.17034,9.86601,22.03635,22.03635,22.03635H97.245z" transform="translate(325.391033 -125.5368)" stroke-width="0" stroke-linejoin="miter" stroke-miterlimit="2" fill="#ffffff" stroke="#ffffff"></path> <rect x="69.69897" y="91.73627" class="c3" width="60.60205" height="16.52759" transform="translate(325.391033 -125.5368)" stroke-width="0" stroke-linejoin="miter" stroke-miterlimit="2" fill="#ff001e" stroke="#ff001e"></rect> <path class="c2" d="M97.245,91.73627H75.20862v11.01855c0,1.90234,0.24115,3.74829,0.69434,5.50903H97.245V91.73627z" transform="translate(325.391033 -125.5368)" stroke-width="0" stroke-linejoin="miter" stroke-miterlimit="2" fill="#f5f5f5" stroke="#f5f5f5"></path> <path class="c2" d="M102.75464,91.73627v16.52759h21.34204c0.45313-1.76074,0.69434-3.60669,0.69434-5.50903V91.73627 H102.75464z" transform="translate(325.391033 -125.5368)" stroke-width="0" stroke-linejoin="miter" stroke-miterlimit="2" fill="#f5f5f5" stroke="#f5f5f5"></path> </g>
        <g id="path322432" aria-label="P" transform="translate(0 325.57564) translate(412.5868873000001 16.280240000000006) scale(1.67) translate(-452.465 50.328)"> <rect x="75.18933" y="75.20886" class="c1" width="21.82825" height="49.58228" transform="translate(382.766033 -125.53686)" stroke-width="0" stroke-linejoin="miter" stroke-miterlimit="2" fill="#ffffff" stroke="#ffffff"></rect> <path class="c1" d="M102.98242,75.20886v33.05491h5.30081c9.12785,0,16.52744-7.39959,16.52744-16.52744V91.7363 c0-9.12785-7.39958-16.52744-16.52744-16.52744H102.98242z" transform="translate(382.766033 -125.53686)" stroke-width="0" stroke-linejoin="miter" stroke-miterlimit="2" fill="#ffffff" stroke="#ffffff"></path> <rect x="69.69897" y="91.73621" class="c3" width="60.60205" height="16.52759" transform="translate(382.766033 -125.53686)" stroke-width="0" stroke-linejoin="miter" stroke-miterlimit="2" fill="#ff001e" stroke="#ff001e"></rect> <rect x="75.18931" y="91.73621" class="c2" width="21.82825" height="16.52759" transform="translate(382.766033 -125.53686)" stroke-width="0" stroke-linejoin="miter" stroke-miterlimit="2" fill="#f5f5f5" stroke="#f5f5f5"></rect> <path class="c2" d="M124.81065,91.73633c0-0.00012,0-0.00012,0-0.00012H102.9824v16.52759h5.30084 C117.41111,108.26379,124.81065,100.86414,124.81065,91.73633z" transform="translate(382.766033 -125.53686)" stroke-width="0" stroke-linejoin="miter" stroke-miterlimit="2" fill="#f5f5f5" stroke="#f5f5f5"></path> </g>
        <g id="path322434" aria-label="E" transform="translate(0 325.57564) translate(508.28289730000006 16.40048) scale(1.67) translate(-509.768 50.256)"> <rect x="75.20883" y="75.2088" class="c1" width="49.5824" height="49.5824" transform="translate(440.069033 -125.464801)" stroke-width="0" stroke-linejoin="miter" stroke-miterlimit="2" fill="#ffffff" stroke="#ffffff"></rect> <rect x="69.69897" y="91.73615" class="c3" width="60.60205" height="16.52759" transform="translate(440.069033 -125.464801)" stroke-width="0" stroke-linejoin="miter" stroke-miterlimit="2" fill="#ff001e" stroke="#ff001e"></rect> <rect x="75.20883" y="91.73615" class="c2" width="49.5824" height="16.52759" transform="translate(440.069033 -125.464801)" stroke-width="0" stroke-linejoin="miter" stroke-miterlimit="2" fill="#f5f5f5" stroke="#f5f5f5"></rect> </g>
        <g id="path322436" aria-label="S" transform="translate(0 325.57564) translate(604.2193873000001 16.280240000000006) scale(1.67) translate(-567.215 50.328)"> <path class="c1" d="M102.74658,75.20886h22.04462v16.52734h-5.51729c-9.12779,0-16.52733-7.39954-16.52733-16.52733V75.20886z" transform="translate(497.516033 -125.53686)" stroke-width="0" stroke-linejoin="miter" stroke-miterlimit="2" fill="#ffffff" stroke="#ffffff"></path> <path class="c1" d="M97.25342,102.7467V75.20886h-8.27571c-7.60435,0-13.76891,6.16455-13.76891,13.76891v0.00003 c0,7.60435,6.16455,13.76891,13.76891,13.76891H97.25342z" transform="translate(497.516033 -125.53686)" stroke-width="0" stroke-linejoin="miter" stroke-miterlimit="2" fill="#ffffff" stroke="#ffffff"></path> <path class="c1" d="M102.74658,97.24139v27.54974h8.26976c7.60764,0,13.77486-6.16721,13.77486-13.77486v-0.00003 c0-7.60764-6.16721-13.77486-13.77486-13.77486H102.74658z" transform="translate(497.516033 -125.53686)" stroke-width="0" stroke-linejoin="miter" stroke-miterlimit="2" fill="#ffffff" stroke="#ffffff"></path> <path class="c1" d="M80.72607,108.26377H75.2088v16.52737h22.04462v-0.00002 C97.25342,115.66331,89.85387,108.26377,80.72607,108.26377z" transform="translate(497.516033 -125.53686)" stroke-width="0" stroke-linejoin="miter" stroke-miterlimit="2" fill="#ffffff" stroke="#ffffff"></path> <rect x="69.69897" y="91.73621" class="c3" width="60.60205" height="16.52759" transform="translate(497.516033 -125.53686)" stroke-width="0" stroke-linejoin="miter" stroke-miterlimit="2" fill="#ff001e" stroke="#ff001e"></rect> <path class="c2" d="M97.25342,102.7467v-11.0105h-21.7674c1.27765,6.28235,6.83215,11.0105,13.4917,11.0105H97.25342z" transform="translate(497.516033 -125.53686)" stroke-width="0" stroke-linejoin="miter" stroke-miterlimit="2" fill="#f5f5f5" stroke="#f5f5f5"></path> <path class="c2" d="M111.01636,97.24133h-8.26978v11.02246h21.76837 C123.23956,101.97522,117.68127,97.24133,111.01636,97.24133z" transform="translate(497.516033 -125.53686)" stroke-width="0" stroke-linejoin="miter" stroke-miterlimit="2" fill="#f5f5f5" stroke="#f5f5f5"></path> </g>
        <g id="path322438" aria-label="H_" transform="translate(0 325.57564) translate(699.9153973 16.280240000000006) scale(1.67) translate(-624.518 50.328)"> <rect x="69.69551" y="75.2088" class="c1" width="22.03662" height="49.5824" transform="translate(560.332056 -125.536801)" stroke-width="0" stroke-linejoin="miter" stroke-miterlimit="2" fill="#ffffff" stroke="#ffffff"></rect> <rect x="97.24153" y="75.2088" class="c1" width="22.03662" height="49.5824" transform="translate(560.332056 -125.536801)" stroke-width="0" stroke-linejoin="miter" stroke-miterlimit="2" fill="#ffffff" stroke="#ffffff"></rect> <rect x="64.18594" y="91.73615" class="c3" width="71.62811" height="16.52759" transform="translate(560.332056 -125.536801)" stroke-width="0" stroke-linejoin="miter" stroke-miterlimit="2" fill="#ff001e" stroke="#ff001e"></rect> <rect x="97.24153" y="91.73615" class="c2" width="22.03662" height="16.52759" transform="translate(560.332056 -125.536801)" stroke-width="0" stroke-linejoin="miter" stroke-miterlimit="2" fill="#f5f5f5" stroke="#f5f5f5"></rect> <rect x="69.69551" y="91.73615" class="c2" width="22.03662" height="16.52759" transform="translate(560.332056 -125.536801)" stroke-width="0" stroke-linejoin="miter" stroke-miterlimit="2" fill="#f5f5f5" stroke="#f5f5f5"></rect> </g>
            </g>
      <image xlink:href="" id="icon" x="0" y="0" style="display: none;"></image>
    </g>
  </g>
</svg>